<?xml version="1.0" encoding="UTF-8"?>
<svg width="44.414" height="46" version="1" xmlns="http://www.w3.org/2000/svg">
<rect transform="matrix(0,-1,-1,0,0,0)" x="-44.414" y="-44.414" width="44.414" height="44.414" rx="22.207" ry="22.207" fill="#30a3db" stroke-width="1.5862"/>
<path transform="matrix(1.5862,0,0,2.1963,-843.86,789.19)" d="m545-342h2v-9.389h-2zm0-11.556h2v-1.4445h-2z" fill="#2682af"/>
<path transform="matrix(1.5862,0,0,2.1963,-843.86,787.6)" d="m545-342h2v-9.389h-2zm0-11.556h2v-1.4445h-2z" fill="#fff"/>
<path d="m22.207 0c-12.303 0-22.207 9.9043-22.207 22.207 0 0.26807 0.03093 0.52821 0.0403 0.7931 0.41828-11.929 10.132-21.414 22.167-21.414s21.748 9.4846 22.167 21.414c8e-3 -0.2649 0.03965-0.52504 0.03965-0.7931 0-12.303-9.9043-22.207-22.207-22.207z" fill="#fff" opacity=".2" stroke-width="1.5862"/>
<path d="m0.0403 23c-0.0094 0.2649-0.0403 0.52503-0.0403 0.7931 4e-6 12.303 9.9043 22.207 22.207 22.207 12.303 0 22.207-9.9043 22.207-22.207 0-0.26807-0.03173-0.52821-0.03966-0.7931-0.41875 11.93-10.133 21.414-22.167 21.414-12.035 0-21.748-9.4839-22.167-21.414z" opacity=".2" stroke-width="1.5862"/>
</svg>
