<?xml version="1.0" encoding="UTF-8"?>
<svg width="44.414" height="46" version="1" xmlns="http://www.w3.org/2000/svg">
<rect transform="matrix(0,-1,-1,0,0,0)" x="-44.414" y="-44.414" width="44.414" height="44.414" rx="22.207" ry="22.207" fill="#30a3db" stroke-width="1.5862"/>
<path d="m22.207 0c-12.303 0-22.207 9.9043-22.207 22.207 0 0.26807 0.03093 0.52821 0.0403 0.7931 0.41828-11.929 10.132-21.414 22.167-21.414s21.748 9.4846 22.167 21.414c8e-3 -0.2649 0.03965-0.52504 0.03965-0.7931 0-12.303-9.9043-22.207-22.207-22.207z" fill="#fff" opacity=".2" stroke-width="1.5862"/>
<path d="m0.0403 23c-0.0094 0.2649-0.0403 0.52503-0.0403 0.7931 4e-6 12.303 9.9043 22.207 22.207 22.207 12.303 0 22.207-9.9043 22.207-22.207 0-0.26807-0.03173-0.52821-0.03966-0.7931-0.41875 11.93-10.133 21.414-22.167 21.414-12.035 0-21.748-9.4839-22.167-21.414z" opacity=".2" stroke-width="1.5862"/>
<path d="m16 15.144v15.723c0 2.144 1.8207 2.1328 1.8207 2.1328h0.18488c0.35294 0.0055 0.70028-0.07258 1.0028-0.24567l14.05-8.001c0.62184-0.34617 0.94118-1.0497 0.94118-1.7532 0-0.7035-0.31933-1.407-0.94118-1.7476l-14.05-8.001c-0.30252-0.17308-0.64985-0.25125-1.0028-0.25125h-0.18488s-1.8207 0-1.8207 2.144z" fill="#fefefe" stroke-width="1.4318"/>
</svg>
